<svg width="185" height="242" viewBox="0 0 185 242" fill="none" xmlns="http://www.w3.org/2000/svg">
<rect x="1.5" y="-1.5" width="182" height="239" rx="48.5" transform="matrix(1 0 0 -1 0 239)" stroke="white" stroke-opacity="0.8" stroke-width="3"/>
<circle cx="92.5" cy="168" r="17.5" fill="#808080"/>
<mask id="path-3-inside-1_286_563" fill="white">
<path d="M122 92.4318C122 105.542 118.839 118.115 113.213 127.385C107.587 136.656 99.9565 141.864 92 141.864C84.0435 141.864 76.4129 136.656 70.7868 127.385C65.1607 118.115 62 105.542 62 92.4318L70.309 92.4318C70.309 101.911 72.5943 111.002 76.6622 117.704C80.73 124.407 86.2472 128.173 92 128.173C97.7528 128.173 103.27 124.407 107.338 117.704C111.406 111.002 113.691 101.911 113.691 92.4318L122 92.4318Z"/>
</mask>
<path d="M122 92.4318C122 105.542 118.839 118.115 113.213 127.385C107.587 136.656 99.9565 141.864 92 141.864C84.0435 141.864 76.4129 136.656 70.7868 127.385C65.1607 118.115 62 105.542 62 92.4318L70.309 92.4318C70.309 101.911 72.5943 111.002 76.6622 117.704C80.73 124.407 86.2472 128.173 92 128.173C97.7528 128.173 103.27 124.407 107.338 117.704C111.406 111.002 113.691 101.911 113.691 92.4318L122 92.4318Z" fill="#808080" stroke="#808080" stroke-width="2" mask="url(#path-3-inside-1_286_563)"/>
</svg>
