<svg width="185" height="242" viewBox="0 0 185 242" fill="none" xmlns="http://www.w3.org/2000/svg">
<g id="Group 727">
<g id="Group 408">
<rect id="Rectangle 340" x="1.5" y="1.5" width="182" height="239" rx="48.5" stroke="white" stroke-opacity="0.8" stroke-width="3"/>
</g>
<path id="Polygon 9" d="M93 21L167.478 115.5H18.5218L93 21Z" fill="#D9D9D9" fill-opacity="0.8"/>
<rect id="Rectangle 437" x="65" y="84" width="56" height="56" fill="#D9D9D9" fill-opacity="0.8"/>
<rect id="Rectangle 438" x="65" y="150" width="56" height="25" fill="#D9D9D9" fill-opacity="0.8"/>
<rect id="Rectangle 439" x="65" y="185" width="56" height="25" fill="#D9D9D9" fill-opacity="0.8"/>
<g id="Group 408_2">
<rect id="Rectangle 340_2" x="1.5" y="1.5" width="182" height="239" rx="48.5" stroke="white" stroke-opacity="0.8" stroke-width="3"/>
</g>
<path id="H" d="M73.6875 112V66.1875H82.9375V84.2188H101.062V66.1875H110.312V112H101.062V91.9688H82.9375V112H73.6875Z" fill="#444343" fill-opacity="0.5"/>
<g id="Group 725">
<rect id="Rectangle 340_3" x="1.5" y="1.5" width="182" height="239" rx="48.5" stroke="white" stroke-opacity="0.8" stroke-width="3"/>
</g>
<path id="Polygon 10" d="M93 21L167.478 115.5H18.5218L93 21Z" fill="#D9D9D9" fill-opacity="0.8"/>
<rect id="Rectangle 750" x="65" y="84" width="56" height="56" fill="#D9D9D9" fill-opacity="0.8"/>
<rect id="Rectangle 751" x="65" y="150" width="56" height="25" fill="#D9D9D9" fill-opacity="0.8"/>
<rect id="Rectangle 752" x="65" y="185" width="56" height="25" fill="#D9D9D9" fill-opacity="0.8"/>
<g id="Group 726">
<rect id="Rectangle 340_4" x="1.5" y="1.5" width="182" height="239" rx="48.5" stroke="white" stroke-opacity="0.8" stroke-width="3"/>
</g>
</g>
</svg>
