<?xml version="1.0" encoding="UTF-8" standalone="no"?>
<!-- Generator: Adobe Illustrator 27.0.0, SVG Export Plug-In . SVG Version: 6.00 Build 0)  -->

<svg
   version="1.1"
   id="Layer_1"
   x="0px"
   y="0px"
   viewBox="0 0 479 200"
   style="enable-background:new 0 0 479 200;"
   xml:space="preserve"
   sodipodi:docname="Arm_In.svg"
   inkscape:version="1.1.2 (1:1.1+202202050950+0a00cf5339)"
   xmlns:inkscape="http://www.inkscape.org/namespaces/inkscape"
   xmlns:sodipodi="http://sodipodi.sourceforge.net/DTD/sodipodi-0.dtd"
   xmlns:xlink="http://www.w3.org/1999/xlink"
   xmlns="http://www.w3.org/2000/svg"
   xmlns:svg="http://www.w3.org/2000/svg"><defs
   id="defs33"><style
     id="style1190">
      .cls-1 {
        fill: none;
        stroke-width: 5px;
      }

      .cls-1, .cls-2 {
        stroke: #231f20;
        stroke-miterlimit: 10;
      }

      .cls-3 {
        fill: rgba(205, 202, 193, .8);
      }

      .cls-2 {
        fill: #231f20;
      }
    </style><rect
     id="SVGID_1_-6"
     x="-46.3"
     y="-198.7"
     width="591"
     height="600.5" /><filter
     id="Adobe_OpacityMaskFilter-0"
     filterUnits="userSpaceOnUse"
     x="313.5"
     y="5.8"
     width="158.3"
     height="191.6">
				<feColorMatrix
   type="matrix"
   values="1 0 0 0 0  0 1 0 0 0  0 0 1 0 0  0 0 0 1 0"
   id="feColorMatrix16-9" />
			</filter></defs><sodipodi:namedview
   id="namedview31"
   pagecolor="#ffffff"
   bordercolor="#666666"
   borderopacity="1.0"
   inkscape:pageshadow="2"
   inkscape:pageopacity="0.0"
   inkscape:pagecheckerboard="0"
   showgrid="false"
   inkscape:zoom="1.3429217"
   inkscape:cx="208.87294"
   inkscape:cy="143.34417"
   inkscape:window-width="1848"
   inkscape:window-height="1016"
   inkscape:window-x="72"
   inkscape:window-y="27"
   inkscape:window-maximized="1"
   inkscape:current-layer="Layer_1" />
<style
   type="text/css"
   id="style2">
	.st0{clip-path:url(#SVGID_00000041990836480947321200000008459015841381596083_);}
	.st1{fill:#808080;}
	.st2{fill:#FFFFFF;filter:url(#Adobe_OpacityMaskFilter);}

		.st3{mask:url(#path-4-inside-1_401_634_00000047759094063494162890000005635916377974113452_);fill:#808080;stroke:#808080;stroke-width:2;}
</style>
<g
   id="g28"
   transform="matrix(-1,0,0,1,561.70382,0)"
   style="fill:#d9dad9;fill-opacity:0.99607843">
	<defs
   id="defs5">
		<rect
   id="SVGID_1_"
   x="-46.299999"
   y="-198.7"
   width="591"
   height="600.5" />
	</defs>
	<clipPath
   id="SVGID_00000121984375294370879300000007122328590028407213_">
		<use
   xlink:href="#SVGID_1_"
   style="overflow:visible"
   id="use7"
   x="0"
   y="0"
   width="100%"
   height="100%" />
	</clipPath>
	<g
   clip-path="url(#SVGID_00000121984375294370879300000007122328590028407213_)"
   id="g26"
   style="fill:#d9dad9;fill-opacity:0.99607843">


		<circle
   class="st1"
   cx="223.10004"
   cy="103"
   r="55.299999"
   id="circle14"
   style="fill:#d9dad9;fill-opacity:0.99607843" />
		<defs
   id="defs19">
			<filter
   id="Adobe_OpacityMaskFilter"
   filterUnits="userSpaceOnUse"
   x="313.5"
   y="5.8000002"
   width="158.3"
   height="191.60001">
				<feColorMatrix
   type="matrix"
   values="1 0 0 0 0  0 1 0 0 0  0 0 1 0 0  0 0 0 1 0"
   id="feColorMatrix16" />
			</filter>
		</defs>

			<mask
   maskUnits="userSpaceOnUse"
   x="313.5"
   y="5.8"
   width="158.3"
   height="191.6"
   id="path-4-inside-1_401_634_00000047759094063494162890000005635916377974113452_">
			<path
   class="st2"
   d="m 470.6,196.4 c -41.4,0 -81.2,-10 -110.5,-27.8 -29.3,-17.8 -45.7,-41.9 -45.7,-67.1 0,-25.1 16.5,-49.3 45.8,-67 C 389.5,16.7 429.3,6.8 470.7,6.8 v 26.3 c -30,0 -58.7,7.2 -79.9,20 -21.2,12.8 -33.1,30.3 -33.1,48.5 0,18.2 11.9,35.6 33.1,48.5 21.2,12.9 49.9,20.1 79.9,20.1 z"
   id="path21" />
		</mask>
		<path
   class="st3"
   d="m 470.6,196.4 c -41.4,0 -81.2,-10 -110.5,-27.8 -29.3,-17.8 -45.7,-41.9 -45.7,-67.1 0,-25.1 16.5,-49.3 45.8,-67 C 389.5,16.7 429.3,6.8 470.7,6.8 v 26.3 c -30,0 -58.7,7.2 -79.9,20 -21.2,12.8 -33.1,30.3 -33.1,48.5 0,18.2 11.9,35.6 33.1,48.5 21.2,12.9 49.9,20.1 79.9,20.1 z"
   mask="url(#path-4-inside-1_401_634_00000047759094063494162890000005635916377974113452_)"
   id="path24"
   style="fill:#d9dad9;fill-opacity:0.99607843" />
	</g>
</g>
<style
   type="text/css"
   id="style2-5">
	.st0{clip-path:url(#SVGID_00000041990836480947321200000008459015841381596083_);}
	.st1{fill:#808080;}
	.st2{fill:#FFFFFF;filter:url(#Adobe_OpacityMaskFilter);}

		.st3{mask:url(#path-4-inside-1_401_634_00000047759094063494162890000005635916377974113452_);fill:#808080;stroke:#808080;stroke-width:2;}
</style></svg>
