<svg width="185" height="242" viewBox="0 0 185 242" fill="none" xmlns="http://www.w3.org/2000/svg">
<rect x="1.5" y="-1.5" width="182" height="239" rx="48.5" transform="matrix(1 0 0 -1 0 239)" stroke="white" stroke-opacity="0.8" stroke-width="3"/>
<circle cx="92.5" cy="121.5" r="9" fill="#808080"/>
<circle cx="92.5" cy="147" r="12.5" fill="#808080"/>
<circle cx="92.5" cy="181" r="17.5" fill="#808080"/>
<mask id="path-5-inside-1_286_689" fill="white">
<path d="M122 51.4318C122 64.5419 118.839 77.1151 113.213 86.3854C107.587 95.6557 99.9565 100.864 92 100.864C84.0435 100.864 76.4129 95.6557 70.7868 86.3854C65.1607 77.1151 62 64.542 62 51.4318L70.309 51.4318C70.309 60.9109 72.5943 70.0017 76.6622 76.7044C80.73 83.4071 86.2472 87.1727 92 87.1727C97.7528 87.1727 103.27 83.4071 107.338 76.7044C111.406 70.0017 113.691 60.9109 113.691 51.4318L122 51.4318Z"/>
</mask>
<path d="M122 51.4318C122 64.5419 118.839 77.1151 113.213 86.3854C107.587 95.6557 99.9565 100.864 92 100.864C84.0435 100.864 76.4129 95.6557 70.7868 86.3854C65.1607 77.1151 62 64.542 62 51.4318L70.309 51.4318C70.309 60.9109 72.5943 70.0017 76.6622 76.7044C80.73 83.4071 86.2472 87.1727 92 87.1727C97.7528 87.1727 103.27 83.4071 107.338 76.7044C111.406 70.0017 113.691 60.9109 113.691 51.4318L122 51.4318Z" fill="#808080" stroke="#808080" stroke-width="2" mask="url(#path-5-inside-1_286_689)"/>
</svg>
