<svg width="185" height="242" viewBox="0 0 185 242" fill="none" xmlns="http://www.w3.org/2000/svg">
<rect x="1.5" y="-1.5" width="182" height="239" rx="48.5" transform="matrix(1 0 0 -1 0 239)" stroke="white" stroke-opacity="0.8" stroke-width="3"/>
<path d="M93 221L167.478 126.5H18.5218L93 221Z" fill="#D9D9D9" fill-opacity="0.8"/>
<rect width="56" height="56" transform="matrix(1 0 0 -1 65 158)" fill="#D9D9D9" fill-opacity="0.8"/>
<rect width="56" height="25" transform="matrix(1 0 0 -1 65 92)" fill="#D9D9D9" fill-opacity="0.8"/>
<rect width="56" height="25" transform="matrix(1 0 0 -1 65 57)" fill="#D9D9D9" fill-opacity="0.8"/>
<rect x="1.5" y="-1.5" width="182" height="239" rx="48.5" transform="matrix(1 0 0 -1 0 239)" stroke="white" stroke-opacity="0.8" stroke-width="3"/>
<path d="M73.6875 130V175.812H82.9375V157.781H101.062V175.812H110.312V130H101.062V150.031H82.9375V130H73.6875Z" fill="#444343" fill-opacity="0.5"/>
<rect x="1.5" y="-1.5" width="182" height="239" rx="48.5" transform="matrix(1 0 0 -1 0 239)" stroke="white" stroke-opacity="0.8" stroke-width="3"/>
<path d="M93 221L167.478 126.5H18.5218L93 221Z" fill="#D9D9D9" fill-opacity="0.8"/>
<rect width="56" height="56" transform="matrix(1 0 0 -1 65 158)" fill="#D9D9D9" fill-opacity="0.8"/>
<rect width="56" height="25" transform="matrix(1 0 0 -1 65 92)" fill="#D9D9D9" fill-opacity="0.8"/>
<rect width="56" height="25" transform="matrix(1 0 0 -1 65 57)" fill="#D9D9D9" fill-opacity="0.8"/>
<rect x="1.5" y="-1.5" width="182" height="239" rx="48.5" transform="matrix(1 0 0 -1 0 239)" stroke="white" stroke-opacity="0.8" stroke-width="3"/>
</svg>
