<svg width="190" height="187" viewBox="0 0 190 187" fill="none" xmlns="http://www.w3.org/2000/svg">
<g clip-path="url(#clip0_401_634)">
<circle cx="95.5" cy="93.5" r="9" fill="#808080"/>
<circle cx="95.5" cy="119" r="12.5" fill="#808080"/>
<circle cx="95.5" cy="153" r="17.5" fill="#808080"/>
<mask id="path-4-inside-1_401_634" fill="white">
<path d="M125 23.4318C125 36.5419 121.839 49.1151 116.213 58.3854C110.587 67.6557 102.956 72.8636 95 72.8636C87.0435 72.8636 79.4129 67.6557 73.7868 58.3854C68.1607 49.1151 65 36.542 65 23.4318L73.309 23.4318C73.309 32.9109 75.5943 42.0017 79.6622 48.7044C83.73 55.4071 89.2472 59.1727 95 59.1727C100.753 59.1727 106.27 55.4071 110.338 48.7044C114.406 42.0017 116.691 32.9109 116.691 23.4318L125 23.4318Z"/>
</mask>
<path d="M125 23.4318C125 36.5419 121.839 49.1151 116.213 58.3854C110.587 67.6557 102.956 72.8636 95 72.8636C87.0435 72.8636 79.4129 67.6557 73.7868 58.3854C68.1607 49.1151 65 36.542 65 23.4318L73.309 23.4318C73.309 32.9109 75.5943 42.0017 79.6622 48.7044C83.73 55.4071 89.2472 59.1727 95 59.1727C100.753 59.1727 106.27 55.4071 110.338 48.7044C114.406 42.0017 116.691 32.9109 116.691 23.4318L125 23.4318Z" fill="#808080" stroke="#808080" stroke-width="2" mask="url(#path-4-inside-1_401_634)"/>
</g>
<defs>
<clipPath id="clip0_401_634">
<rect width="190" height="187" fill="white" transform="matrix(1 0 0 -1 0 187)"/>
</clipPath>
</defs>
</svg>
