<svg width="190" height="187" viewBox="0 0 190 187" fill="none" xmlns="http://www.w3.org/2000/svg">
<circle cx="95.5" cy="125" r="17.5" fill="#808080"/>
<mask id="path-2-inside-1_401_643" fill="white">
<path d="M125 49.4318C125 62.5419 121.839 75.1151 116.213 84.3854C110.587 93.6557 102.956 98.8636 95 98.8636C87.0435 98.8636 79.4129 93.6557 73.7868 84.3854C68.1607 75.1151 65 62.542 65 49.4318L73.309 49.4318C73.309 58.9109 75.5943 68.0017 79.6622 74.7044C83.73 81.4071 89.2472 85.1727 95 85.1727C100.753 85.1727 106.27 81.4071 110.338 74.7044C114.406 68.0017 116.691 58.9109 116.691 49.4318L125 49.4318Z"/>
</mask>
<path d="M125 49.4318C125 62.5419 121.839 75.1151 116.213 84.3854C110.587 93.6557 102.956 98.8636 95 98.8636C87.0435 98.8636 79.4129 93.6557 73.7868 84.3854C68.1607 75.1151 65 62.542 65 49.4318L73.309 49.4318C73.309 58.9109 75.5943 68.0017 79.6622 74.7044C83.73 81.4071 89.2472 85.1727 95 85.1727C100.753 85.1727 106.27 81.4071 110.338 74.7044C114.406 68.0017 116.691 58.9109 116.691 49.4318L125 49.4318Z" fill="#808080" stroke="#808080" stroke-width="2" mask="url(#path-2-inside-1_401_643)"/>
</svg>
