<?xml version="1.0" encoding="UTF-8" standalone="no"?>
<svg
   id="Layer_1"
   data-name="Layer 1"
   viewBox="0 0 595.50742 754.45886"
   version="1.1"
   sodipodi:docname="Drive_Right.svg"
   inkscape:version="1.1.2 (1:1.1+202202050950+0a00cf5339)"
   width="595.50745"
   height="754.45886"
   xmlns:inkscape="http://www.inkscape.org/namespaces/inkscape"
   xmlns:sodipodi="http://sodipodi.sourceforge.net/DTD/sodipodi-0.dtd"
   xmlns="http://www.w3.org/2000/svg"
   xmlns:svg="http://www.w3.org/2000/svg">
  <sodipodi:namedview
     id="namedview1439"
     pagecolor="#ffffff"
     bordercolor="#666666"
     borderopacity="1.0"
     inkscape:pageshadow="2"
     inkscape:pageopacity="0.0"
     inkscape:pagecheckerboard="0"
     showgrid="false"
     inkscape:zoom="0.52561717"
     inkscape:cx="301.55027"
     inkscape:cy="219.74168"
     inkscape:window-width="1848"
     inkscape:window-height="1016"
     inkscape:window-x="72"
     inkscape:window-y="27"
     inkscape:window-maximized="1"
     inkscape:current-layer="Layer_1"
     fit-margin-top="0"
     fit-margin-left="0"
     fit-margin-right="0"
     fit-margin-bottom="0" />
  <defs
     id="defs1430">
    <style
       id="style1428">
      .cls-1 {
        fill: none;
        stroke-width: 5px;
      }

      .cls-1, .cls-2 {
        stroke: #231f20;
        stroke-miterlimit: 10;
      }

      .cls-3 {
        fill: rgba(205, 202, 193, .8);
      }

      .cls-2 {
        fill: #231f20;
      }
    </style>
  </defs>
  <path
     class="cls-3"
     d="m 59.973958,446.58735 c -5.88,-58.92063 6.09,-118.32003 34.14,-169.2705 28.030002,-50.95049 70.620002,-90.72148 121.370002,-113.3287 50.75,-22.60723 106.92,-26.84498 160.09,-12.07492 l -35.07,35.30274 c -5.68,5.7183 -9.02,13.63526 -9.29,22.01323 -0.27,8.37797 2.55,16.53431 7.85,22.66042 5.3,6.13498 12.63,9.74327 20.39,10.03583 7.76,0.29257 15.31,-2.75719 20.99,-8.47549 l 85.67,-86.23548 c 5.68,-5.7183 9.02,-13.63526 9.29,-22.01324 0.27,-8.37798 -2.55,-16.5343 -7.85,-22.66042 l -79.88,-92.485721 c -5.3,-6.1349814 -12.63,-9.74327135 -20.39,-10.03583535 -7.76,-0.292564 -15.31,2.75719495 -20.99,8.47549295 -5.68,5.7182994 -9.02,13.6352614 -9.29,22.0132334 -0.27,8.377973 2.55,16.534305 7.85,22.66042 l 28.92,33.47643 c -52.48,-11.35681 -106.78,-7.97016 -157.7,9.84079 -50.92,17.81095 -96.74,49.44334 -133.070002,91.87399 -36.33,42.4218 -61.96,94.21451 -74.4199998,150.40455 -12.46,56.19004 -11.34,114.89791 3.2599998,170.4851 14.6,55.58717 42.18,106.1919 80.11,146.95583 37.920002,40.76394 84.920002,70.33065 136.480002,85.85427 51.55,15.52363 105.94,16.48997 157.93,2.79265 52,-13.68845 99.87,-41.57069 139.01,-80.9782 5.68,-5.7183 9.02,-13.63525 9.29,-22.01322 0.27,-8.37798 -2.55,-16.53431 -7.85,-22.66042 -5.3,-6.13499 -12.63,-9.74328 -20.39,-10.03584 -7.76,-0.29257 -15.31,2.75719 -20.99,8.47549 -24.38,24.53106 -52.99,43.64525 -84.21,56.24324 -31.22,12.60685 -64.43,18.44039 -97.74,17.18149 -33.31,-1.25005 -66.06,-9.57482 -96.39,-24.4956 -30.32,-14.92076 -57.64,-36.14496 -80.36,-62.458 C 89.283958,560.77601 65.863958,505.49912 59.983958,446.57848 Z"
     id="path1432"
     style="fill:#d9dad9;fill-opacity:1;stroke-width:0.941573" />
  <path
     class="cls-1"
     d="m 592.30396,343.13886 -69.15,190.31 c 0,0 -68.7,189.07 -272.34,115.08 -198.060002,-71.96 -127.11,-267.23 -127.11,-267.23 q 66.9,-184.11 66.9,-184.11 z"
     id="path1434" />
  <circle
     class="cls-2"
     cx="367.38394"
     cy="336.40884"
     r="37.73"
     id="circle1436" />
  <path
     style="fill:#d9dad9;fill-opacity:1;stroke:none;stroke-width:2.054;stroke-linecap:round;stroke-linejoin:round;stroke-miterlimit:4;stroke-dasharray:none;stroke-opacity:0.8;paint-order:markers fill stroke"
     d="m 302.00895,658.82531 c -33.6936,-5.8949 -78.10892,-23.36861 -106.06488,-41.72762 -14.71064,-9.66066 -41.84581,-36.81403 -51.39672,-51.43121 -9.38895,-14.36928 -18.75593,-35.93053 -24.04906,-55.35695 -5.94781,-21.82921 -6.14259,-75.47552 -0.36891,-101.61089 4.80774,-21.76292 71.72462,-206.61078 74.56752,-205.98162 2.91494,0.6451 391.12847,141.73879 392.00285,142.4709 1.27536,1.06784 -68.36931,191.26983 -74.4426,203.3053 -14.38456,28.50595 -43.51165,63.22432 -67.08225,79.95945 -15.90711,11.29404 -35.91576,20.96041 -55.57596,26.84929 -13.9934,4.19148 -21.21868,5.11104 -44.30662,5.6389 -18.23799,0.41696 -32.90599,-0.29997 -43.28337,-2.11555 z m 80.51977,-286.44648 c 3.2146,-0.99131 8.52205,-4.56869 11.79436,-7.94974 21.30263,-22.01064 12.11134,-57.8264 -16.76184,-65.316 -40.65293,-10.54524 -67.27899,40.72825 -34.97682,67.35443 11.167,9.20478 23.39569,11.01449 39.9443,5.91131 z"
     id="path17868" />
</svg>
