<svg width="185" height="242" viewBox="0 0 185 242" fill="none" xmlns="http://www.w3.org/2000/svg">
<rect x="-1.5" y="1.5" width="182" height="239" rx="48.5" transform="matrix(-1 0 0 1 182 0)" stroke="white" stroke-opacity="0.8" stroke-width="3"/>
<path fill-rule="evenodd" clip-rule="evenodd" d="M90.5005 82.5829C113.098 82.5829 131.415 100.9 131.415 123.497C131.415 146.095 113.098 164.412 90.5005 164.412C67.9034 164.412 49.5859 146.095 49.5859 123.497C49.5859 100.9 67.9034 82.5829 90.5005 82.5829ZM58.6076 130.903C60.0394 137.05 63.2158 142.653 67.7549 147.038C72.2941 151.423 78.0029 154.404 84.1955 155.624C83.4059 144.883 79.875 138.439 75.4153 134.876C71.1438 131.459 65.3503 130.138 58.6076 130.899V130.903ZM105.586 134.872C101.126 138.444 97.5951 144.883 96.8054 155.624C102.999 154.404 108.708 151.422 113.247 147.036C117.786 142.65 120.962 137.047 122.393 130.899C115.651 130.138 109.857 131.459 105.586 134.876V134.872ZM90.5005 90.7658C82.8747 90.7668 75.4885 93.4294 69.616 98.2943C63.7436 103.159 59.7532 109.921 58.3335 117.413L58.1575 118.428L67.1996 116.62C69.5809 116.145 71.8434 114.889 74.372 113.183L76.3236 111.825C79.5845 109.509 84.4165 107.132 90.5005 107.132C96.1794 107.132 100.766 109.202 104.002 111.362L106.629 113.183C108.838 114.676 110.851 115.822 112.913 116.407L113.801 116.62L122.843 118.428C121.633 110.72 117.71 103.697 111.78 98.6248C105.85 93.5531 98.3035 90.766 90.5005 90.7658Z" fill="white" fill-opacity="0.8"/>
<path d="M125.187 155.846C120.94 160.401 115.836 164.075 110.169 166.658C104.502 169.24 98.3808 170.682 92.1563 170.899C85.9319 171.116 79.7255 170.105 73.8917 167.924C68.0578 165.743 62.7107 162.434 58.1556 158.186C57.0941 157.197 55.6829 156.669 54.2324 156.72C52.7819 156.77 51.411 157.395 50.4212 158.456C49.4313 159.518 48.9037 160.929 48.9544 162.38C49.005 163.83 49.6298 165.201 50.6913 166.191C58.0065 173.012 66.9518 177.839 76.669 180.209C86.3862 182.579 96.5493 182.412 106.183 179.725C115.818 177.038 124.6 171.92 131.687 164.863C138.775 157.806 143.93 149.045 146.658 139.423C149.387 129.8 149.597 119.638 147.268 109.911C144.939 100.183 140.151 91.2177 133.361 83.8734C126.571 76.5291 118.008 71.0528 108.493 67.9696C98.9776 64.8864 88.83 64.2998 79.0233 66.2661L84.4274 60.4709C85.4172 59.4094 85.9448 57.9982 85.8942 56.5477C85.8435 55.0973 85.2187 53.7263 84.1573 52.7364C83.0958 51.7466 81.6846 51.219 80.2341 51.2696C78.7836 51.3203 77.4127 51.945 76.4228 53.0065L61.4943 69.0154C60.5044 70.0769 59.9768 71.4881 60.0275 72.9386C60.0781 74.389 60.7029 75.76 61.7644 76.7498L77.7736 91.6786C78.835 92.6685 80.2462 93.1961 81.6967 93.1454C83.1472 93.0948 84.5182 92.47 85.508 91.4086C86.4978 90.3471 87.0254 88.9359 86.9748 87.4854C86.9241 86.035 86.2993 84.664 85.2378 83.6742L78.6848 77.5633C88.6203 75.0061 99.1173 75.7396 108.601 79.6538C118.084 83.5679 126.043 90.4517 131.282 99.2722C136.522 108.093 138.76 118.374 137.661 128.575C136.562 138.775 132.186 148.344 125.187 155.846Z" fill="#CDCAC1" fill-opacity="0.8"/>
</svg>
