<svg width="190" height="187" viewBox="0 0 190 187" fill="none" xmlns="http://www.w3.org/2000/svg">
<path fill-rule="evenodd" clip-rule="evenodd" d="M94.4995 52.582C71.9024 52.582 53.585 70.8995 53.585 93.4966C53.585 116.094 71.9024 134.411 94.4995 134.411C117.097 134.411 135.414 116.094 135.414 93.4966C135.414 70.8995 117.097 52.582 94.4995 52.582ZM126.392 100.902C124.961 107.049 121.784 112.652 117.245 117.037C112.706 121.422 106.997 124.404 100.804 125.623C101.594 114.883 105.125 108.439 109.585 104.875C113.856 101.459 119.65 100.137 126.392 100.898V100.902ZM79.4143 104.871C83.874 108.443 87.4049 114.883 88.1946 125.623C82.0014 124.403 76.2922 121.421 71.753 117.035C67.2138 112.649 64.0378 107.046 62.6066 100.898C69.3493 100.137 75.1428 101.459 79.4143 104.875V104.871ZM94.4995 60.7649C102.125 60.766 109.512 63.4286 115.384 68.2934C121.256 73.1582 125.247 79.9202 126.667 87.4126L126.842 88.4273L117.8 86.6188C115.419 86.1442 113.157 84.8882 110.628 83.182L108.676 81.8237C105.416 79.5079 100.584 77.1308 94.4995 77.1308C88.8206 77.1308 84.2341 79.201 80.9977 81.3613L78.371 83.182C76.1616 84.6754 74.1486 85.821 72.0865 86.4061L71.1987 86.6188L62.1566 88.4273C63.3667 80.7187 67.2903 73.6957 73.2202 68.624C79.1501 63.5522 86.6965 60.7651 94.4995 60.7649Z" fill="white" fill-opacity="0.8"/>
<path d="M59.8127 125.844C64.0603 130.399 69.1636 134.073 74.831 136.656C80.4985 139.239 86.6192 140.68 92.8437 140.897C99.0681 141.114 105.274 140.104 111.108 137.922C116.942 135.741 122.289 132.432 126.844 128.185C127.906 127.195 129.317 126.667 130.768 126.718C132.218 126.768 133.589 127.393 134.579 128.455C135.569 129.516 136.096 130.927 136.046 132.378C135.995 133.828 135.37 135.199 134.309 136.189C126.993 143.01 118.048 147.837 108.331 150.207C98.6138 152.577 88.4507 152.411 78.8165 149.723C69.1823 147.036 60.4003 141.918 53.3128 134.861C46.2253 127.804 41.0701 119.044 38.3417 109.421C35.6134 99.7983 35.4034 89.636 37.732 79.9088C40.0605 70.1816 44.8494 61.2158 51.6393 53.8716C58.4293 46.5273 66.9924 41.0509 76.5074 37.9677C86.0224 34.8845 96.17 34.298 105.977 36.2643L100.573 30.469C99.5828 29.4076 99.0552 27.9964 99.1058 26.5459C99.1565 25.0954 99.7813 23.7245 100.843 22.7346C101.904 21.7448 103.315 21.2171 104.766 21.2678C106.216 21.3184 107.587 21.9432 108.577 23.0047L123.506 39.0136C124.496 40.075 125.023 41.4862 124.973 42.9367C124.922 44.3872 124.297 45.7582 123.236 46.748L107.226 61.6768C106.165 62.6666 104.754 63.1943 103.303 63.1436C101.853 63.093 100.482 62.4682 99.492 61.4067C98.5022 60.3453 97.9746 58.9341 98.0252 57.4836C98.0759 56.0331 98.7007 54.6622 99.7622 53.6723L106.315 47.5615C96.3797 45.0043 85.8827 45.7378 76.3993 49.652C66.9158 53.5661 58.9573 60.4498 53.7176 69.2704C48.4779 78.0909 46.2396 88.3727 47.3385 98.573C48.4375 108.773 52.8144 118.342 59.8127 125.844Z" fill="#CDCAC1" fill-opacity="0.8"/>
</svg>
