<svg width="185" height="242" viewBox="0 0 185 242" fill="none" xmlns="http://www.w3.org/2000/svg">
<rect x="1.5" y="1.5" width="182" height="239" rx="48.5" stroke="white" stroke-opacity="0.8" stroke-width="3"/>
<path fill-rule="evenodd" clip-rule="evenodd" d="M94.4995 82.5829C71.9024 82.5829 53.585 100.9 53.585 123.497C53.585 146.095 71.9024 164.412 94.4995 164.412C117.097 164.412 135.414 146.095 135.414 123.497C135.414 100.9 117.097 82.5829 94.4995 82.5829ZM126.392 130.903C124.961 137.05 121.784 142.653 117.245 147.038C112.706 151.423 106.997 154.404 100.804 155.624C101.594 144.883 105.125 138.439 109.585 134.876C113.856 131.459 119.65 130.138 126.392 130.899V130.903ZM79.4143 134.872C83.874 138.444 87.4049 144.883 88.1946 155.624C82.0014 154.404 76.2922 151.422 71.753 147.036C67.2138 142.65 64.0378 137.047 62.6066 130.899C69.3493 130.138 75.1428 131.459 79.4143 134.876V134.872ZM94.4995 90.7658C102.125 90.7668 109.512 93.4294 115.384 98.2943C121.256 103.159 125.247 109.921 126.667 117.413L126.842 118.428L117.8 116.62C115.419 116.145 113.157 114.889 110.628 113.183L108.676 111.825C105.416 109.509 100.584 107.132 94.4995 107.132C88.8206 107.132 84.2341 109.202 80.9977 111.362L78.371 113.183C76.1616 114.676 74.1486 115.822 72.0865 116.407L71.1987 116.62L62.1566 118.428C63.3667 110.72 67.2903 103.697 73.2202 98.6248C79.1501 93.5531 86.6965 90.766 94.4995 90.7658Z" fill="white" fill-opacity="0.8"/>
<path d="M59.8127 155.846C64.0603 160.401 69.1636 164.075 74.831 166.658C80.4985 169.24 86.6192 170.682 92.8437 170.899C99.0681 171.116 105.274 170.105 111.108 167.924C116.942 165.743 122.289 162.434 126.844 158.186C127.906 157.197 129.317 156.669 130.768 156.72C132.218 156.77 133.589 157.395 134.579 158.456C135.569 159.518 136.096 160.929 136.046 162.38C135.995 163.83 135.37 165.201 134.309 166.191C126.993 173.012 118.048 177.839 108.331 180.209C98.6138 182.579 88.4507 182.412 78.8165 179.725C69.1823 177.038 60.4003 171.92 53.3128 164.863C46.2253 157.806 41.0701 149.045 38.3417 139.423C35.6134 129.8 35.4034 119.638 37.732 109.911C40.0605 100.183 44.8494 91.2177 51.6393 83.8734C58.4293 76.5291 66.9924 71.0528 76.5074 67.9696C86.0224 64.8864 96.17 64.2998 105.977 66.2661L100.573 60.4709C99.5828 59.4094 99.0552 57.9982 99.1058 56.5477C99.1565 55.0973 99.7813 53.7263 100.843 52.7364C101.904 51.7466 103.315 51.219 104.766 51.2696C106.216 51.3203 107.587 51.945 108.577 53.0065L123.506 69.0154C124.496 70.0769 125.023 71.4881 124.973 72.9386C124.922 74.389 124.297 75.76 123.236 76.7498L107.226 91.6786C106.165 92.6685 104.754 93.1961 103.303 93.1454C101.853 93.0948 100.482 92.47 99.492 91.4086C98.5022 90.3471 97.9746 88.9359 98.0252 87.4854C98.0759 86.035 98.7007 84.664 99.7622 83.6742L106.315 77.5633C96.3797 75.0061 85.8827 75.7396 76.3993 79.6538C66.9158 83.5679 58.9573 90.4517 53.7176 99.2722C48.4779 108.093 46.2396 118.374 47.3385 128.575C48.4375 138.775 52.8144 148.344 59.8127 155.846Z" fill="#CDCAC1" fill-opacity="0.8"/>
</svg>
