<svg width="190" height="187" viewBox="0 0 190 187" fill="none" xmlns="http://www.w3.org/2000/svg">
<path fill-rule="evenodd" clip-rule="evenodd" d="M95.5005 52.582C118.098 52.582 136.415 70.8995 136.415 93.4966C136.415 116.094 118.098 134.411 95.5005 134.411C72.9034 134.411 54.5859 116.094 54.5859 93.4966C54.5859 70.8995 72.9034 52.582 95.5005 52.582ZM63.6076 100.902C65.0394 107.049 68.2158 112.652 72.7549 117.037C77.2941 121.422 83.0029 124.404 89.1955 125.623C88.4059 114.883 84.875 108.439 80.4153 104.875C76.1438 101.459 70.3503 100.137 63.6076 100.898V100.902ZM110.586 104.871C106.126 108.443 102.595 114.883 101.805 125.623C107.999 124.403 113.708 121.421 118.247 117.035C122.786 112.649 125.962 107.046 127.393 100.898C120.651 100.137 114.857 101.459 110.586 104.875V104.871ZM95.5005 60.7649C87.8747 60.766 80.4885 63.4286 74.616 68.2934C68.7436 73.1582 64.7532 79.9202 63.3335 87.4126L63.1575 88.4273L72.1996 86.6188C74.5809 86.1442 76.8434 84.8882 79.372 83.182L81.3236 81.8237C84.5845 79.5079 89.4165 77.1308 95.5005 77.1308C101.179 77.1308 105.766 79.201 109.002 81.3613L111.629 83.182C113.838 84.6754 115.851 85.821 117.913 86.4061L118.801 86.6188L127.843 88.4273C126.633 80.7187 122.71 73.6957 116.78 68.624C110.85 63.5522 103.303 60.7651 95.5005 60.7649Z" fill="white" fill-opacity="0.8"/>
<path d="M130.187 125.844C125.94 130.399 120.836 134.073 115.169 136.656C109.502 139.239 103.381 140.68 97.1563 140.897C90.9319 141.114 84.7255 140.104 78.8917 137.922C73.0578 135.741 67.7107 132.432 63.1556 128.185C62.0941 127.195 60.6829 126.667 59.2324 126.718C57.7819 126.768 56.411 127.393 55.4212 128.455C54.4313 129.516 53.9037 130.927 53.9544 132.378C54.005 133.828 54.6298 135.199 55.6913 136.189C63.0065 143.01 71.9518 147.837 81.669 150.207C91.3862 152.577 101.549 152.411 111.183 149.723C120.818 147.036 129.6 141.918 136.687 134.861C143.775 127.804 148.93 119.044 151.658 109.421C154.387 99.7983 154.597 89.636 152.268 79.9088C149.939 70.1816 145.151 61.2158 138.361 53.8716C131.571 46.5273 123.008 41.0509 113.493 37.9677C103.978 34.8845 93.83 34.298 84.0233 36.2643L89.4274 30.469C90.4172 29.4076 90.9448 27.9964 90.8942 26.5459C90.8435 25.0954 90.2187 23.7245 89.1573 22.7346C88.0958 21.7448 86.6846 21.2171 85.2341 21.2678C83.7836 21.3184 82.4127 21.9432 81.4228 23.0047L66.4943 39.0136C65.5044 40.075 64.9768 41.4862 65.0275 42.9367C65.0781 44.3872 65.7029 45.7582 66.7644 46.748L82.7736 61.6768C83.835 62.6666 85.2462 63.1943 86.6967 63.1436C88.1472 63.093 89.5182 62.4682 90.508 61.4067C91.4978 60.3453 92.0254 58.9341 91.9748 57.4836C91.9241 56.0331 91.2993 54.6622 90.2378 53.6723L83.6848 47.5615C93.6203 45.0043 104.117 45.7378 113.601 49.652C123.084 53.5661 131.043 60.4498 136.282 69.2704C141.522 78.0909 143.76 88.3727 142.661 98.573C141.562 108.773 137.186 118.342 130.187 125.844Z" fill="#CDCAC1" fill-opacity="0.8"/>
</svg>
