<svg width="185" height="242" viewBox="0 0 185 242" fill="none" xmlns="http://www.w3.org/2000/svg">
<mask id="path-1-inside-1_286_482" fill="white">
<path d="M160.922 98.4625C164.975 108.552 166.369 119.513 164.971 130.295C163.573 141.078 159.43 151.321 152.938 160.043C146.447 168.765 137.824 175.675 127.897 180.109C117.969 184.544 107.07 186.355 96.2415 185.369L97.7833 168.432C105.711 169.154 113.692 167.828 120.96 164.581C128.229 161.334 134.542 156.275 139.295 149.889C144.048 143.503 147.081 136.003 148.105 128.109C149.129 120.214 148.108 112.189 145.141 104.801L160.922 98.4625Z"/>
</mask>
<path d="M160.922 98.4625C164.975 108.552 166.369 119.513 164.971 130.295C163.573 141.078 159.43 151.321 152.938 160.043C146.447 168.765 137.824 175.675 127.897 180.109C117.969 184.544 107.07 186.355 96.2415 185.369L97.7833 168.432C105.711 169.154 113.692 167.828 120.96 164.581C128.229 161.334 134.542 156.275 139.295 149.889C144.048 143.503 147.081 136.003 148.105 128.109C149.129 120.214 148.108 112.189 145.141 104.801L160.922 98.4625Z" fill="#D9D9D9" fill-opacity="0.6" stroke="black" stroke-opacity="0.8" stroke-width="2" mask="url(#path-1-inside-1_286_482)"/>
<mask id="path-2-inside-2_286_482" fill="white">
<path d="M21.0738 98.4625C17.0212 108.552 15.6271 119.513 17.0251 130.295C18.4231 141.078 22.5664 151.321 29.0579 160.043C35.5495 168.765 44.172 175.675 54.0994 180.109C64.0268 184.544 74.9266 186.355 85.7546 185.369L84.2128 168.432C76.2849 169.154 68.3044 167.828 61.0358 164.581C53.7673 161.334 47.4541 156.275 42.7012 149.889C37.9483 143.503 34.9147 136.003 33.8911 128.109C32.8676 120.214 33.8882 112.189 36.8554 104.801L21.0738 98.4625Z"/>
</mask>
<path d="M21.0738 98.4625C17.0212 108.552 15.6271 119.513 17.0251 130.295C18.4231 141.078 22.5664 151.321 29.0579 160.043C35.5495 168.765 44.172 175.675 54.0994 180.109C64.0268 184.544 74.9266 186.355 85.7546 185.369L84.2128 168.432C76.2849 169.154 68.3044 167.828 61.0358 164.581C53.7673 161.334 47.4541 156.275 42.7012 149.889C37.9483 143.503 34.9147 136.003 33.8911 128.109C32.8676 120.214 33.8882 112.189 36.8554 104.801L21.0738 98.4625Z" fill="#D9D9D9" fill-opacity="0.6" stroke="black" stroke-opacity="0.8" stroke-width="2" mask="url(#path-2-inside-2_286_482)"/>
<mask id="path-3-inside-3_286_482" fill="white">
<path d="M26.3449 74.4903C23.6731 76.7722 21.4769 79.5581 19.8818 82.6887C18.2866 85.8194 17.3237 89.2336 17.048 92.7364C16.7723 96.2392 17.1893 99.762 18.2751 103.104C19.3608 106.445 21.0942 109.54 23.3761 112.212C25.658 114.884 28.4438 117.08 31.5745 118.675C34.7052 120.271 38.1194 121.233 41.6222 121.509C45.125 121.785 48.6478 121.368 51.9895 120.282C55.3311 119.196 58.4262 117.463 61.098 115.181L43.7214 94.8357L26.3449 74.4903Z"/>
</mask>
<path d="M26.3449 74.4903C23.6731 76.7722 21.4769 79.5581 19.8818 82.6887C18.2866 85.8194 17.3237 89.2336 17.048 92.7364C16.7723 96.2392 17.1893 99.762 18.2751 103.104C19.3608 106.445 21.0942 109.54 23.3761 112.212C25.658 114.884 28.4438 117.08 31.5745 118.675C34.7052 120.271 38.1194 121.233 41.6222 121.509C45.125 121.785 48.6478 121.368 51.9895 120.282C55.3311 119.196 58.4262 117.463 61.098 115.181L43.7214 94.8357L26.3449 74.4903Z" fill="black" fill-opacity="0.8"/>
<path d="M26.3449 74.4903C23.6731 76.7722 21.4769 79.5581 19.8818 82.6887C18.2866 85.8194 17.3237 89.2336 17.048 92.7364C16.7723 96.2392 17.1893 99.762 18.2751 103.104C19.3608 106.445 21.0942 109.54 23.3761 112.212C25.658 114.884 28.4438 117.08 31.5745 118.675C34.7052 120.271 38.1194 121.233 41.6222 121.509C45.125 121.785 48.6478 121.368 51.9895 120.282C55.3311 119.196 58.4262 117.463 61.098 115.181L43.7214 94.8357L26.3449 74.4903Z" stroke="white" stroke-width="14" mask="url(#path-3-inside-3_286_482)"/>
<path d="M26.3449 74.4903C23.6731 76.7722 21.4769 79.5581 19.8818 82.6887C18.2866 85.8194 17.3237 89.2336 17.048 92.7364C16.7723 96.2392 17.1893 99.762 18.2751 103.104C19.3608 106.445 21.0942 109.54 23.3761 112.212C25.658 114.884 28.4438 117.08 31.5745 118.675C34.7052 120.271 38.1194 121.233 41.6222 121.509C45.125 121.785 48.6478 121.368 51.9895 120.282C55.3311 119.196 58.4262 117.463 61.098 115.181L43.7214 94.8357L26.3449 74.4903Z" stroke="black" stroke-opacity="0.8" stroke-width="14" mask="url(#path-3-inside-3_286_482)"/>
<mask id="path-4-inside-4_286_482" fill="white">
<path d="M160.381 75.9193C162.865 78.4039 164.836 81.3534 166.181 84.5996C167.525 87.8458 168.218 91.325 168.218 94.8386C168.218 98.3523 167.525 101.831 166.181 105.078C164.836 108.324 162.865 111.273 160.381 113.758C157.896 116.242 154.947 118.213 151.701 119.558C148.454 120.902 144.975 121.595 141.462 121.595C137.948 121.595 134.469 120.902 131.223 119.558C127.976 118.213 125.027 116.242 122.542 113.758L141.462 94.8386L160.381 75.9193Z"/>
</mask>
<path d="M160.381 75.9193C162.865 78.4039 164.836 81.3534 166.181 84.5996C167.525 87.8458 168.218 91.325 168.218 94.8386C168.218 98.3523 167.525 101.831 166.181 105.078C164.836 108.324 162.865 111.273 160.381 113.758C157.896 116.242 154.947 118.213 151.701 119.558C148.454 120.902 144.975 121.595 141.462 121.595C137.948 121.595 134.469 120.902 131.223 119.558C127.976 118.213 125.027 116.242 122.542 113.758L141.462 94.8386L160.381 75.9193Z" fill="black" fill-opacity="0.8"/>
<path d="M160.381 75.9193C162.865 78.4039 164.836 81.3534 166.181 84.5996C167.525 87.8458 168.218 91.325 168.218 94.8386C168.218 98.3523 167.525 101.831 166.181 105.078C164.836 108.324 162.865 111.273 160.381 113.758C157.896 116.242 154.947 118.213 151.701 119.558C148.454 120.902 144.975 121.595 141.462 121.595C137.948 121.595 134.469 120.902 131.223 119.558C127.976 118.213 125.027 116.242 122.542 113.758L141.462 94.8386L160.381 75.9193Z" stroke="white" stroke-width="14" mask="url(#path-4-inside-4_286_482)"/>
<path d="M160.381 75.9193C162.865 78.4039 164.836 81.3534 166.181 84.5996C167.525 87.8458 168.218 91.325 168.218 94.8386C168.218 98.3523 167.525 101.831 166.181 105.078C164.836 108.324 162.865 111.273 160.381 113.758C157.896 116.242 154.947 118.213 151.701 119.558C148.454 120.902 144.975 121.595 141.462 121.595C137.948 121.595 134.469 120.902 131.223 119.558C127.976 118.213 125.027 116.242 122.542 113.758L141.462 94.8386L160.381 75.9193Z" stroke="black" stroke-opacity="0.8" stroke-width="14" mask="url(#path-4-inside-4_286_482)"/>
<rect x="1.5" y="-1.5" width="182" height="239" rx="48.5" transform="matrix(1 0 0 -1 0 239)" stroke="white" stroke-opacity="0.8" stroke-width="3"/>
</svg>
