<svg width="191" height="242" viewBox="0 0 191 242" fill="none" xmlns="http://www.w3.org/2000/svg">
<rect x="1.5" y="-1.5" width="182" height="239" rx="48.5" transform="matrix(1 0 0 -1 6 239)" stroke="white" stroke-opacity="0.8" stroke-width="3"/>
<circle cx="99" cy="120.999" r="81" stroke="#D1D1D1" stroke-width="2"/>
<path d="M20.0315 103.923L23.4534 104.658L20.0315 103.923ZM33.0956 73.9479L30.2449 71.9173L30.2449 71.9173L33.0956 73.9479ZM55.4653 53.3197L53.5676 50.3788L53.5676 50.3788L55.4653 53.3197ZM86.4251 40.8028L85.9207 37.3393L85.9207 37.3393L86.4251 40.8028ZM119.205 43.8105L86.4288 20.166L82.3401 60.3732L119.205 43.8105ZM48.9515 185.057L46.7779 187.8L46.7779 187.8L48.9515 185.057ZM28.249 161.113L31.3146 159.424L31.3146 159.424L28.249 161.113ZM18.9548 131.578L22.4249 131.121L22.4249 131.121L18.9548 131.578ZM23.4534 104.658C26.0373 92.6299 28.8465 85.9453 35.9463 75.9786L30.2449 71.9173C22.5542 82.7136 19.3797 90.2927 16.6096 103.188L23.4534 104.658ZM35.9463 75.9786C42.5112 66.7627 47.6285 62.5418 57.3629 56.2606L53.5676 50.3788C43.3319 56.9834 37.4692 61.7758 30.2449 71.9173L35.9463 75.9786ZM57.3629 56.2606C68.0796 49.3456 74.6964 46.0477 86.9294 44.2662L85.9207 37.3393C72.3434 39.3165 64.7671 43.1522 53.5676 50.3788L57.3629 56.2606ZM86.9294 44.2662C87.3498 44.205 87.7833 44.1514 88.229 44.1052L87.5075 37.1425C86.9728 37.1979 86.4432 37.2632 85.9207 37.3393L86.9294 44.2662ZM78.6156 195.46C66.888 192.161 60.3746 189.642 51.1252 182.314L46.7779 187.8C57.0249 195.919 64.5083 198.763 76.72 202.198L78.6156 195.46ZM51.1252 182.314C41.6858 174.834 37.0444 169.827 31.3146 159.424L25.1833 162.802C31.439 174.159 36.7466 179.852 46.7779 187.8L51.1252 182.314ZM31.3146 159.424C25.8367 149.479 23.9299 142.563 22.4249 131.121L15.4847 132.034C17.0778 144.146 19.1991 151.938 25.1833 162.802L31.3146 159.424ZM22.4249 131.121C21.0715 120.832 21.2787 114.782 23.4534 104.658L16.6096 103.188C14.2619 114.117 14.0299 120.974 15.4847 132.034L22.4249 131.121Z" fill="#D1D1D1"/>
</svg>
