<svg width="185" height="242" viewBox="0 0 185 242" fill="none" xmlns="http://www.w3.org/2000/svg">
<mask id="path-1-inside-1_286_474" fill="white">
<path d="M100 61C109.455 61 118.818 62.8753 127.553 66.5187C136.289 70.1622 144.226 75.5025 150.912 82.2348C157.598 88.967 162.901 96.9593 166.519 105.755C170.138 114.552 172 123.979 172 133.5C172 143.021 170.138 152.448 166.519 161.245C162.901 170.041 157.598 178.033 150.912 184.765C144.226 191.497 136.289 196.838 127.553 200.481C118.818 204.125 109.455 206 100 206L100 186.582C106.923 186.582 113.778 185.209 120.174 182.542C126.569 179.874 132.381 175.964 137.276 171.035C142.171 166.106 146.054 160.254 148.703 153.814C151.353 147.373 152.716 140.471 152.716 133.5C152.716 126.529 151.353 119.627 148.703 113.186C146.054 106.746 142.171 100.894 137.276 95.9651C132.381 91.0359 126.569 87.1259 120.174 84.4583C113.778 81.7906 106.923 80.4176 100 80.4176V61Z"/>
</mask>
<path d="M100 61C109.455 61 118.818 62.8753 127.553 66.5187C136.289 70.1622 144.226 75.5025 150.912 82.2348C157.598 88.967 162.901 96.9593 166.519 105.755C170.138 114.552 172 123.979 172 133.5C172 143.021 170.138 152.448 166.519 161.245C162.901 170.041 157.598 178.033 150.912 184.765C144.226 191.497 136.289 196.838 127.553 200.481C118.818 204.125 109.455 206 100 206L100 186.582C106.923 186.582 113.778 185.209 120.174 182.542C126.569 179.874 132.381 175.964 137.276 171.035C142.171 166.106 146.054 160.254 148.703 153.814C151.353 147.373 152.716 140.471 152.716 133.5C152.716 126.529 151.353 119.627 148.703 113.186C146.054 106.746 142.171 100.894 137.276 95.9651C132.381 91.0359 126.569 87.1259 120.174 84.4583C113.778 81.7906 106.923 80.4176 100 80.4176V61Z" fill="#D9D9D9" fill-opacity="0.6" stroke="black" stroke-opacity="0.8" stroke-width="2" mask="url(#path-1-inside-1_286_474)"/>
<mask id="path-2-inside-2_286_474" fill="white">
<path d="M85.5 61C75.9792 61 66.5516 62.8753 57.7554 66.5187C48.9593 70.1622 40.967 75.5025 34.2348 82.2348C27.5025 88.967 22.1622 96.9593 18.5187 105.755C14.8753 114.552 13 123.979 13 133.5C13 143.021 14.8753 152.448 18.5187 161.245C22.1622 170.041 27.5025 178.033 34.2348 184.765C40.967 191.497 48.9593 196.838 57.7555 200.481C66.5516 204.125 75.9792 206 85.5 206L85.5 186.582C78.5291 186.582 71.6265 185.209 65.1863 182.542C58.746 179.874 52.8942 175.964 47.9651 171.035C43.0359 166.106 39.1259 160.254 36.4583 153.814C33.7906 147.373 32.4176 140.471 32.4176 133.5C32.4176 126.529 33.7906 119.627 36.4583 113.186C39.1259 106.746 43.0359 100.894 47.9651 95.9651C52.8942 91.0359 58.746 87.1259 65.1863 84.4583C71.6265 81.7906 78.5291 80.4176 85.5 80.4176V61Z"/>
</mask>
<path d="M85.5 61C75.9792 61 66.5516 62.8753 57.7554 66.5187C48.9593 70.1622 40.967 75.5025 34.2348 82.2348C27.5025 88.967 22.1622 96.9593 18.5187 105.755C14.8753 114.552 13 123.979 13 133.5C13 143.021 14.8753 152.448 18.5187 161.245C22.1622 170.041 27.5025 178.033 34.2348 184.765C40.967 191.497 48.9593 196.838 57.7555 200.481C66.5516 204.125 75.9792 206 85.5 206L85.5 186.582C78.5291 186.582 71.6265 185.209 65.1863 182.542C58.746 179.874 52.8942 175.964 47.9651 171.035C43.0359 166.106 39.1259 160.254 36.4583 153.814C33.7906 147.373 32.4176 140.471 32.4176 133.5C32.4176 126.529 33.7906 119.627 36.4583 113.186C39.1259 106.746 43.0359 100.894 47.9651 95.9651C52.8942 91.0359 58.746 87.1259 65.1863 84.4583C71.6265 81.7906 78.5291 80.4176 85.5 80.4176V61Z" fill="#D9D9D9" fill-opacity="0.6" stroke="black" stroke-opacity="0.8" stroke-width="2" mask="url(#path-2-inside-2_286_474)"/>
<mask id="path-3-inside-3_286_474" fill="white">
<path d="M85.5 37C81.4947 37 77.5286 37.7889 73.8282 39.3217C70.1277 40.8544 66.7654 43.1011 63.9332 45.9332C61.1011 48.7654 58.8544 52.1277 57.3217 55.8282C55.7889 59.5286 55 63.4947 55 67.5C55 71.5053 55.7889 75.4714 57.3217 79.1718C58.8544 82.8723 61.1011 86.2346 63.9332 89.0668C66.7654 91.8989 70.1277 94.1456 73.8282 95.6783C77.5286 97.2111 81.4947 98 85.5 98L85.5 67.5V37Z"/>
</mask>
<path d="M85.5 37C81.4947 37 77.5286 37.7889 73.8282 39.3217C70.1277 40.8544 66.7654 43.1011 63.9332 45.9332C61.1011 48.7654 58.8544 52.1277 57.3217 55.8282C55.7889 59.5286 55 63.4947 55 67.5C55 71.5053 55.7889 75.4714 57.3217 79.1718C58.8544 82.8723 61.1011 86.2346 63.9332 89.0668C66.7654 91.8989 70.1277 94.1456 73.8282 95.6783C77.5286 97.2111 81.4947 98 85.5 98L85.5 67.5V37Z" fill="black" fill-opacity="0.8"/>
<path d="M85.5 37C81.4947 37 77.5286 37.7889 73.8282 39.3217C70.1277 40.8544 66.7654 43.1011 63.9332 45.9332C61.1011 48.7654 58.8544 52.1277 57.3217 55.8282C55.7889 59.5286 55 63.4947 55 67.5C55 71.5053 55.7889 75.4714 57.3217 79.1718C58.8544 82.8723 61.1011 86.2346 63.9332 89.0668C66.7654 91.8989 70.1277 94.1456 73.8282 95.6783C77.5286 97.2111 81.4947 98 85.5 98L85.5 67.5V37Z" stroke="white" stroke-width="14" mask="url(#path-3-inside-3_286_474)"/>
<path d="M85.5 37C81.4947 37 77.5286 37.7889 73.8282 39.3217C70.1277 40.8544 66.7654 43.1011 63.9332 45.9332C61.1011 48.7654 58.8544 52.1277 57.3217 55.8282C55.7889 59.5286 55 63.4947 55 67.5C55 71.5053 55.7889 75.4714 57.3217 79.1718C58.8544 82.8723 61.1011 86.2346 63.9332 89.0668C66.7654 91.8989 70.1277 94.1456 73.8282 95.6783C77.5286 97.2111 81.4947 98 85.5 98L85.5 67.5V37Z" stroke="black" stroke-opacity="0.8" stroke-width="14" mask="url(#path-3-inside-3_286_474)"/>
<mask id="path-4-inside-4_286_474" fill="white">
<path d="M99.5 37C103.505 37 107.471 37.7889 111.172 39.3217C114.872 40.8544 118.235 43.1011 121.067 45.9332C123.899 48.7654 126.146 52.1277 127.678 55.8282C129.211 59.5286 130 63.4947 130 67.5C130 71.5053 129.211 75.4714 127.678 79.1718C126.146 82.8723 123.899 86.2346 121.067 89.0668C118.235 91.8989 114.872 94.1456 111.172 95.6783C107.471 97.2111 103.505 98 99.5 98L99.5 67.5V37Z"/>
</mask>
<path d="M99.5 37C103.505 37 107.471 37.7889 111.172 39.3217C114.872 40.8544 118.235 43.1011 121.067 45.9332C123.899 48.7654 126.146 52.1277 127.678 55.8282C129.211 59.5286 130 63.4947 130 67.5C130 71.5053 129.211 75.4714 127.678 79.1718C126.146 82.8723 123.899 86.2346 121.067 89.0668C118.235 91.8989 114.872 94.1456 111.172 95.6783C107.471 97.2111 103.505 98 99.5 98L99.5 67.5V37Z" fill="black" fill-opacity="0.8"/>
<path d="M99.5 37C103.505 37 107.471 37.7889 111.172 39.3217C114.872 40.8544 118.235 43.1011 121.067 45.9332C123.899 48.7654 126.146 52.1277 127.678 55.8282C129.211 59.5286 130 63.4947 130 67.5C130 71.5053 129.211 75.4714 127.678 79.1718C126.146 82.8723 123.899 86.2346 121.067 89.0668C118.235 91.8989 114.872 94.1456 111.172 95.6783C107.471 97.2111 103.505 98 99.5 98L99.5 67.5V37Z" stroke="white" stroke-width="14" mask="url(#path-4-inside-4_286_474)"/>
<path d="M99.5 37C103.505 37 107.471 37.7889 111.172 39.3217C114.872 40.8544 118.235 43.1011 121.067 45.9332C123.899 48.7654 126.146 52.1277 127.678 55.8282C129.211 59.5286 130 63.4947 130 67.5C130 71.5053 129.211 75.4714 127.678 79.1718C126.146 82.8723 123.899 86.2346 121.067 89.0668C118.235 91.8989 114.872 94.1456 111.172 95.6783C107.471 97.2111 103.505 98 99.5 98L99.5 67.5V37Z" stroke="black" stroke-opacity="0.8" stroke-width="14" mask="url(#path-4-inside-4_286_474)"/>
<rect x="1.5" y="-1.5" width="182" height="239" rx="48.5" transform="matrix(1 0 0 -1 0 239)" stroke="white" stroke-opacity="0.8" stroke-width="3"/>
</svg>
