<svg width="190" height="187" viewBox="0 0 190 187" fill="none" xmlns="http://www.w3.org/2000/svg">
<path d="M152.969 86.925L149.547 87.6601L152.969 86.925ZM139.904 56.9496L142.755 54.919L142.755 54.919L139.904 56.9496ZM117.535 36.3214L119.432 33.3805L119.432 33.3805L117.535 36.3214ZM86.5749 23.8045L87.0793 20.341L87.0793 20.341L86.5749 23.8045ZM53.7951 26.8122L86.5712 3.16774L90.6599 43.3749L53.7951 26.8122ZM124.048 168.059L126.222 170.802L126.222 170.802L124.048 168.059ZM144.751 144.115L141.685 142.426L141.685 142.426L144.751 144.115ZM154.045 114.579L150.575 114.123L150.575 114.123L154.045 114.579ZM149.547 87.6601C146.963 75.6316 144.153 68.9471 137.054 58.9803L142.755 54.919C150.446 65.7153 153.62 73.2944 156.39 86.1899L149.547 87.6601ZM137.054 58.9803C130.489 49.7644 125.371 45.5435 115.637 39.2623L119.432 33.3805C129.668 39.9851 135.531 44.7775 142.755 54.919L137.054 58.9803ZM115.637 39.2623C104.92 32.3473 98.3036 29.0494 86.0706 27.2679L87.0793 20.341C100.657 22.3182 108.233 26.1539 119.432 33.3805L115.637 39.2623ZM86.0706 27.2679C85.6502 27.2067 85.2167 27.1531 84.771 27.1069L85.4925 20.1442C86.0272 20.1996 86.5568 20.2649 87.0793 20.341L86.0706 27.2679ZM94.3844 178.461C106.112 175.162 112.625 172.644 121.875 165.315L126.222 170.802C115.975 178.921 108.492 181.765 96.28 185.2L94.3844 178.461ZM121.875 165.315C131.314 157.836 135.956 152.828 141.685 142.426L147.817 145.803C141.561 157.16 136.253 162.853 126.222 170.802L121.875 165.315ZM141.685 142.426C147.163 132.481 149.07 125.565 150.575 114.123L157.515 115.036C155.922 127.148 153.801 134.939 147.817 145.803L141.685 142.426ZM150.575 114.123C151.928 103.834 151.721 97.7837 149.547 87.6601L156.39 86.1899C158.738 97.1188 158.97 103.976 157.515 115.036L150.575 114.123Z" fill="#D1D1D1"/>
<path d="M81.7356 142.997C91.2044 140.984 99.486 135.293 104.758 127.174C110.031 119.055 111.862 109.175 109.849 99.706C107.837 90.2371 102.145 81.9556 94.0261 76.6833C85.9075 71.411 76.0269 69.5797 66.558 71.5924L68.6599 81.4808C75.5062 80.0255 82.6502 81.3496 88.5202 85.1617C94.3903 88.9737 98.5056 94.9615 99.9608 101.808C101.416 108.654 100.092 115.798 96.2799 121.668C92.4679 127.538 86.48 131.654 79.6337 133.109L81.7356 142.997Z" fill="#D9D9D9"/>
<path d="M81.7302 142.995C72.2614 145.008 62.3808 143.176 54.2621 137.904C46.1435 132.632 40.4517 124.35 38.4391 114.881C36.4264 105.413 38.2577 95.532 43.53 87.4133C48.8023 79.2947 57.0838 73.6029 66.5527 71.5903L68.6545 81.4786C61.8082 82.9339 55.8204 87.0492 52.0083 92.9192C48.1963 98.7893 46.8722 105.933 48.3274 112.78C49.7827 119.626 53.898 125.614 59.768 129.426C65.6381 133.238 72.7821 134.562 79.6284 133.107L81.7302 142.995Z" fill="#D9D9D9"/>
<circle cx="49.4693" cy="85.6201" r="12.5" transform="rotate(-12 49.4693 85.6201)" fill="#D1D1D1"/>
</svg>
