<svg width="196" height="242" viewBox="0 0 196 242" fill="none" xmlns="http://www.w3.org/2000/svg">
<rect x="1.5" y="-1.5" width="182" height="239" rx="48.5" transform="matrix(1 0 0 -1 0 239)" stroke="white" stroke-opacity="0.8" stroke-width="3"/>
<circle cx="93" cy="121" r="81" stroke="#D1D1D1" stroke-width="2"/>
<path d="M175.152 102.961L178.573 102.223L178.573 102.223L175.152 102.961ZM161.999 72.5799L164.86 70.5647L161.999 72.5799ZM139.604 51.617L141.526 48.6919L139.604 51.617ZM108.677 38.8246L108.152 42.2849L108.152 42.2849L108.677 38.8246ZM75.9993 41.7309L108.855 18.1973L112.808 58.4181L75.9993 41.7309ZM146.649 184.923L144.459 182.193L144.459 182.193L146.649 184.923ZM167.195 160.785L164.116 159.122L164.116 159.122L167.195 160.785ZM176.341 130.943L172.868 130.507L172.868 130.507L176.341 130.943ZM171.731 103.698C169.101 91.5054 166.266 84.7184 159.137 74.5952L164.86 70.5647C172.568 81.5093 175.76 89.1779 178.573 102.223L171.731 103.698ZM159.137 74.5952C152.544 65.2338 147.417 60.938 137.682 54.5422L141.526 48.6919C151.76 55.4159 157.621 60.2846 164.86 70.5647L159.137 74.5952ZM137.682 54.5422C126.963 47.4993 120.352 44.1371 108.152 42.2849L109.202 35.3642C122.758 37.4222 130.33 41.3363 141.526 48.6919L137.682 54.5422ZM108.152 42.2849C107.765 42.2262 107.367 42.174 106.958 42.1281L107.739 35.1718C108.232 35.2271 108.72 35.291 109.202 35.3642L108.152 42.2849ZM117.12 195.368C128.796 192.081 135.273 189.563 144.459 182.193L148.84 187.653C138.647 195.831 131.187 198.68 119.017 202.106L117.12 195.368ZM144.459 182.193C153.837 174.669 158.444 169.624 164.116 159.122L170.275 162.449C164.085 173.911 158.815 179.65 148.84 187.653L144.459 182.193ZM164.116 159.122C169.539 149.08 171.414 142.085 172.868 130.507L179.814 131.379C178.276 143.618 176.196 151.486 170.275 162.449L164.116 159.122ZM172.868 130.507C174.176 120.095 173.944 113.962 171.731 103.698L178.573 102.223C180.957 113.277 181.217 120.205 179.814 131.379L172.868 130.507Z" fill="#D1D1D1"/>
</svg>
