<svg width="190" height="187" viewBox="0 0 190 187" fill="none" xmlns="http://www.w3.org/2000/svg">
<mask id="path-1-inside-1_401_659" fill="white">
<path d="M162.923 71.4608C166.975 81.5501 168.369 92.511 166.971 103.294C165.573 114.076 161.43 124.319 154.939 133.041C148.447 141.764 139.825 148.673 129.897 153.107C119.97 157.542 109.07 159.353 98.242 158.367L99.7837 141.43C107.712 142.152 115.692 140.826 122.961 137.579C130.229 134.332 136.542 129.273 141.295 122.887C146.048 116.501 149.082 109.002 150.105 101.107C151.129 93.2122 150.108 85.1869 147.141 77.7998L162.923 71.4608Z"/>
</mask>
<path d="M162.923 71.4608C166.975 81.5501 168.369 92.511 166.971 103.294C165.573 114.076 161.43 124.319 154.939 133.041C148.447 141.764 139.825 148.673 129.897 153.107C119.97 157.542 109.07 159.353 98.242 158.367L99.7837 141.43C107.712 142.152 115.692 140.826 122.961 137.579C130.229 134.332 136.542 129.273 141.295 122.887C146.048 116.501 149.082 109.002 150.105 101.107C151.129 93.2122 150.108 85.1869 147.141 77.7998L162.923 71.4608Z" fill="#D9D9D9" fill-opacity="0.6" stroke="black" stroke-opacity="0.8" stroke-width="2" mask="url(#path-1-inside-1_401_659)"/>
<mask id="path-2-inside-2_401_659" fill="white">
<path d="M23.0743 71.4608C19.0217 81.5501 17.6276 92.511 19.0256 103.294C20.4236 114.076 24.5669 124.319 31.0584 133.041C37.55 141.764 46.1725 148.673 56.0999 153.107C66.0273 157.542 76.927 159.353 87.7551 158.367L86.2133 141.43C78.2853 142.152 70.3049 140.826 63.0363 137.579C55.7677 134.332 49.4546 129.273 44.7017 122.887C39.9487 116.501 36.9152 109.002 35.8916 101.107C34.868 93.2122 35.8887 85.1869 38.8559 77.7998L23.0743 71.4608Z"/>
</mask>
<path d="M23.0743 71.4608C19.0217 81.5501 17.6276 92.511 19.0256 103.294C20.4236 114.076 24.5669 124.319 31.0584 133.041C37.55 141.764 46.1725 148.673 56.0999 153.107C66.0273 157.542 76.927 159.353 87.7551 158.367L86.2133 141.43C78.2853 142.152 70.3049 140.826 63.0363 137.579C55.7677 134.332 49.4546 129.273 44.7017 122.887C39.9487 116.501 36.9152 109.002 35.8916 101.107C34.868 93.2122 35.8887 85.1869 38.8559 77.7998L23.0743 71.4608Z" fill="#D9D9D9" fill-opacity="0.6" stroke="black" stroke-opacity="0.8" stroke-width="2" mask="url(#path-2-inside-2_401_659)"/>
<mask id="path-3-inside-3_401_659" fill="white">
<path d="M28.3454 47.4906C25.6736 49.7725 23.4774 52.5583 21.8822 55.689C20.2871 58.8197 19.3242 62.2339 19.0485 65.7367C18.7728 69.2395 19.1898 72.7623 20.2756 76.1039C21.3613 79.4456 23.0947 82.5407 25.3766 85.2125C27.6585 87.8843 30.4443 90.0804 33.575 91.6756C36.7057 93.2707 40.1199 94.2337 43.6227 94.5093C47.1255 94.785 50.6483 94.3681 53.99 93.2823C57.3316 92.1965 60.4267 90.4632 63.0985 88.1813L45.7219 67.8359L28.3454 47.4906Z"/>
</mask>
<path d="M28.3454 47.4906C25.6736 49.7725 23.4774 52.5583 21.8822 55.689C20.2871 58.8197 19.3242 62.2339 19.0485 65.7367C18.7728 69.2395 19.1898 72.7623 20.2756 76.1039C21.3613 79.4456 23.0947 82.5407 25.3766 85.2125C27.6585 87.8843 30.4443 90.0804 33.575 91.6756C36.7057 93.2707 40.1199 94.2337 43.6227 94.5093C47.1255 94.785 50.6483 94.3681 53.99 93.2823C57.3316 92.1965 60.4267 90.4632 63.0985 88.1813L45.7219 67.8359L28.3454 47.4906Z" fill="black" fill-opacity="0.8"/>
<path d="M28.3454 47.4906C25.6736 49.7725 23.4774 52.5583 21.8822 55.689C20.2871 58.8197 19.3242 62.2339 19.0485 65.7367C18.7728 69.2395 19.1898 72.7623 20.2756 76.1039C21.3613 79.4456 23.0947 82.5407 25.3766 85.2125C27.6585 87.8843 30.4443 90.0804 33.575 91.6756C36.7057 93.2707 40.1199 94.2337 43.6227 94.5093C47.1255 94.785 50.6483 94.3681 53.99 93.2823C57.3316 92.1965 60.4267 90.4632 63.0985 88.1813L45.7219 67.8359L28.3454 47.4906Z" stroke="white" stroke-width="14" mask="url(#path-3-inside-3_401_659)"/>
<path d="M28.3454 47.4906C25.6736 49.7725 23.4774 52.5583 21.8822 55.689C20.2871 58.8197 19.3242 62.2339 19.0485 65.7367C18.7728 69.2395 19.1898 72.7623 20.2756 76.1039C21.3613 79.4456 23.0947 82.5407 25.3766 85.2125C27.6585 87.8843 30.4443 90.0804 33.575 91.6756C36.7057 93.2707 40.1199 94.2337 43.6227 94.5093C47.1255 94.785 50.6483 94.3681 53.99 93.2823C57.3316 92.1965 60.4267 90.4632 63.0985 88.1813L45.7219 67.8359L28.3454 47.4906Z" stroke="black" stroke-opacity="0.8" stroke-width="14" mask="url(#path-3-inside-3_401_659)"/>
<mask id="path-4-inside-4_401_659" fill="white">
<path d="M162.381 48.9206C164.866 51.4051 166.837 54.3546 168.181 57.6008C169.526 60.847 170.218 64.3262 170.218 67.8398C170.218 71.3535 169.526 74.8327 168.181 78.0789C166.837 81.3251 164.866 84.2746 162.381 86.7591C159.897 89.2436 156.947 91.2145 153.701 92.5591C150.455 93.9037 146.976 94.5957 143.462 94.5957C139.948 94.5957 136.469 93.9037 133.223 92.5591C129.977 91.2145 127.027 89.2436 124.543 86.7591L143.462 67.8398L162.381 48.9206Z"/>
</mask>
<path d="M162.381 48.9206C164.866 51.4051 166.837 54.3546 168.181 57.6008C169.526 60.847 170.218 64.3262 170.218 67.8398C170.218 71.3535 169.526 74.8327 168.181 78.0789C166.837 81.3251 164.866 84.2746 162.381 86.7591C159.897 89.2436 156.947 91.2145 153.701 92.5591C150.455 93.9037 146.976 94.5957 143.462 94.5957C139.948 94.5957 136.469 93.9037 133.223 92.5591C129.977 91.2145 127.027 89.2436 124.543 86.7591L143.462 67.8398L162.381 48.9206Z" fill="black" fill-opacity="0.8"/>
<path d="M162.381 48.9206C164.866 51.4051 166.837 54.3546 168.181 57.6008C169.526 60.847 170.218 64.3262 170.218 67.8398C170.218 71.3535 169.526 74.8327 168.181 78.0789C166.837 81.3251 164.866 84.2746 162.381 86.7591C159.897 89.2436 156.947 91.2145 153.701 92.5591C150.455 93.9037 146.976 94.5957 143.462 94.5957C139.948 94.5957 136.469 93.9037 133.223 92.5591C129.977 91.2145 127.027 89.2436 124.543 86.7591L143.462 67.8398L162.381 48.9206Z" stroke="white" stroke-width="14" mask="url(#path-4-inside-4_401_659)"/>
<path d="M162.381 48.9206C164.866 51.4051 166.837 54.3546 168.181 57.6008C169.526 60.847 170.218 64.3262 170.218 67.8398C170.218 71.3535 169.526 74.8327 168.181 78.0789C166.837 81.3251 164.866 84.2746 162.381 86.7591C159.897 89.2436 156.947 91.2145 153.701 92.5591C150.455 93.9037 146.976 94.5957 143.462 94.5957C139.948 94.5957 136.469 93.9037 133.223 92.5591C129.977 91.2145 127.027 89.2436 124.543 86.7591L143.462 67.8398L162.381 48.9206Z" stroke="black" stroke-opacity="0.8" stroke-width="14" mask="url(#path-4-inside-4_401_659)"/>
</svg>
