<svg width="190" height="187" viewBox="0 0 190 187" fill="none" xmlns="http://www.w3.org/2000/svg">
<path d="M37.0315 86.925L40.4534 87.6601L37.0315 86.925ZM50.0956 56.9496L47.2449 54.919L47.2449 54.919L50.0956 56.9496ZM72.4653 36.3214L70.5676 33.3805L70.5676 33.3805L72.4653 36.3214ZM103.425 23.8045L102.921 20.341L102.921 20.341L103.425 23.8045ZM136.205 26.8122L103.429 3.16774L99.3401 43.3749L136.205 26.8122ZM65.9515 168.059L63.7779 170.802L63.7779 170.802L65.9515 168.059ZM45.249 144.115L48.3146 142.426L48.3146 142.426L45.249 144.115ZM35.9548 114.579L39.4249 114.123L39.4249 114.123L35.9548 114.579ZM40.4534 87.6601C43.0373 75.6316 45.8465 68.9471 52.9463 58.9803L47.2449 54.919C39.5542 65.7153 36.3797 73.2944 33.6096 86.1899L40.4534 87.6601ZM52.9463 58.9803C59.5112 49.7644 64.6285 45.5435 74.3629 39.2623L70.5676 33.3805C60.3319 39.9851 54.4692 44.7775 47.2449 54.919L52.9463 58.9803ZM74.3629 39.2623C85.0796 32.3473 91.6964 29.0494 103.929 27.2679L102.921 20.341C89.3434 22.3182 81.7671 26.1539 70.5676 33.3805L74.3629 39.2623ZM103.929 27.2679C104.35 27.2067 104.783 27.1531 105.229 27.1069L104.507 20.1442C103.973 20.1996 103.443 20.2649 102.921 20.341L103.929 27.2679ZM95.6156 178.461C83.888 175.162 77.3746 172.644 68.1252 165.315L63.7779 170.802C74.0249 178.921 81.5083 181.765 93.72 185.2L95.6156 178.461ZM68.1252 165.315C58.6858 157.836 54.0444 152.828 48.3146 142.426L42.1833 145.803C48.439 157.16 53.7466 162.853 63.7779 170.802L68.1252 165.315ZM48.3146 142.426C42.8367 132.481 40.9299 125.565 39.4249 114.123L32.4847 115.036C34.0778 127.148 36.1991 134.939 42.1833 145.803L48.3146 142.426ZM39.4249 114.123C38.0715 103.834 38.2787 97.7837 40.4534 87.6601L33.6096 86.1899C31.2619 97.1188 31.0299 103.976 32.4847 115.036L39.4249 114.123Z" fill="#D1D1D1"/>
<path d="M108.264 142.997C98.7956 140.984 90.514 135.293 85.2417 127.174C79.9694 119.055 78.1381 109.175 80.1508 99.706C82.1635 90.2371 87.8552 81.9556 95.9739 76.6833C104.093 71.411 113.973 69.5797 123.442 71.5924L121.34 81.4808C114.494 80.0255 107.35 81.3496 101.48 85.1617C95.6097 88.9737 91.4944 94.9615 90.0392 101.808C88.5839 108.654 89.908 115.798 93.7201 121.668C97.5321 127.538 103.52 131.654 110.366 133.109L108.264 142.997Z" fill="#D9D9D9"/>
<path d="M108.27 142.995C117.739 145.008 127.619 143.176 135.738 137.904C143.857 132.632 149.548 124.35 151.561 114.881C153.574 105.413 151.742 95.532 146.47 87.4133C141.198 79.2947 132.916 73.6029 123.447 71.5903L121.345 81.4786C128.192 82.9339 134.18 87.0492 137.992 92.9192C141.804 98.7893 143.128 105.933 141.673 112.78C140.217 119.626 136.102 125.614 130.232 129.426C124.362 133.238 117.218 134.562 110.372 133.107L108.27 142.995Z" fill="#D9D9D9"/>
<circle cx="12.5" cy="12.5" r="12.5" transform="matrix(-0.978148 -0.207912 -0.207912 0.978148 155.356 75.9922)" fill="#D1D1D1"/>
</svg>
