<svg width="190" height="187" viewBox="0 0 190 187" fill="none" xmlns="http://www.w3.org/2000/svg">
<mask id="path-1-inside-1_401_652" fill="white">
<path d="M102 33C111.455 33 120.818 34.8753 129.553 38.5187C138.289 42.1622 146.226 47.5025 152.912 54.2348C159.598 60.967 164.901 68.9593 168.519 77.7554C172.138 86.5516 174 95.9792 174 105.5C174 115.021 172.138 124.448 168.519 133.245C164.901 142.041 159.598 150.033 152.912 156.765C146.226 163.497 138.289 168.838 129.553 172.481C120.818 176.125 111.455 178 102 178L102 158.582C108.923 158.582 115.778 157.209 122.174 154.542C128.569 151.874 134.381 147.964 139.276 143.035C144.171 138.106 148.054 132.254 150.703 125.814C153.353 119.373 154.716 112.471 154.716 105.5C154.716 98.5291 153.353 91.6265 150.703 85.1863C148.054 78.746 144.171 72.8942 139.276 67.9651C134.381 63.0359 128.569 59.1259 122.174 56.4583C115.778 53.7906 108.923 52.4176 102 52.4176V33Z"/>
</mask>
<path d="M102 33C111.455 33 120.818 34.8753 129.553 38.5187C138.289 42.1622 146.226 47.5025 152.912 54.2348C159.598 60.967 164.901 68.9593 168.519 77.7554C172.138 86.5516 174 95.9792 174 105.5C174 115.021 172.138 124.448 168.519 133.245C164.901 142.041 159.598 150.033 152.912 156.765C146.226 163.497 138.289 168.838 129.553 172.481C120.818 176.125 111.455 178 102 178L102 158.582C108.923 158.582 115.778 157.209 122.174 154.542C128.569 151.874 134.381 147.964 139.276 143.035C144.171 138.106 148.054 132.254 150.703 125.814C153.353 119.373 154.716 112.471 154.716 105.5C154.716 98.5291 153.353 91.6265 150.703 85.1863C148.054 78.746 144.171 72.8942 139.276 67.9651C134.381 63.0359 128.569 59.1259 122.174 56.4583C115.778 53.7906 108.923 52.4176 102 52.4176V33Z" fill="#D9D9D9" fill-opacity="0.6" stroke="black" stroke-opacity="0.8" stroke-width="2" mask="url(#path-1-inside-1_401_652)"/>
<mask id="path-2-inside-2_401_652" fill="white">
<path d="M87.5 33C77.9792 33 68.5516 34.8753 59.7554 38.5187C50.9593 42.1622 42.967 47.5025 36.2348 54.2348C29.5025 60.967 24.1622 68.9593 20.5187 77.7554C16.8753 86.5516 15 95.9792 15 105.5C15 115.021 16.8753 124.448 20.5187 133.245C24.1622 142.041 29.5025 150.033 36.2348 156.765C42.967 163.497 50.9593 168.838 59.7555 172.481C68.5516 176.125 77.9792 178 87.5 178L87.5 158.582C80.5291 158.582 73.6265 157.209 67.1863 154.542C60.746 151.874 54.8942 147.964 49.9651 143.035C45.0359 138.106 41.1259 132.254 38.4583 125.814C35.7906 119.373 34.4176 112.471 34.4176 105.5C34.4176 98.5291 35.7906 91.6265 38.4583 85.1863C41.1259 78.746 45.0359 72.8942 49.9651 67.9651C54.8942 63.0359 60.746 59.1259 67.1863 56.4583C73.6265 53.7906 80.5291 52.4176 87.5 52.4176V33Z"/>
</mask>
<path d="M87.5 33C77.9792 33 68.5516 34.8753 59.7554 38.5187C50.9593 42.1622 42.967 47.5025 36.2348 54.2348C29.5025 60.967 24.1622 68.9593 20.5187 77.7554C16.8753 86.5516 15 95.9792 15 105.5C15 115.021 16.8753 124.448 20.5187 133.245C24.1622 142.041 29.5025 150.033 36.2348 156.765C42.967 163.497 50.9593 168.838 59.7555 172.481C68.5516 176.125 77.9792 178 87.5 178L87.5 158.582C80.5291 158.582 73.6265 157.209 67.1863 154.542C60.746 151.874 54.8942 147.964 49.9651 143.035C45.0359 138.106 41.1259 132.254 38.4583 125.814C35.7906 119.373 34.4176 112.471 34.4176 105.5C34.4176 98.5291 35.7906 91.6265 38.4583 85.1863C41.1259 78.746 45.0359 72.8942 49.9651 67.9651C54.8942 63.0359 60.746 59.1259 67.1863 56.4583C73.6265 53.7906 80.5291 52.4176 87.5 52.4176V33Z" fill="#D9D9D9" fill-opacity="0.6" stroke="black" stroke-opacity="0.8" stroke-width="2" mask="url(#path-2-inside-2_401_652)"/>
<mask id="path-3-inside-3_401_652" fill="white">
<path d="M87.5 9C83.4947 9 79.5286 9.78891 75.8282 11.3217C72.1277 12.8544 68.7654 15.1011 65.9332 17.9332C63.1011 20.7654 60.8544 24.1277 59.3217 27.8282C57.7889 31.5286 57 35.4947 57 39.5C57 43.5053 57.7889 47.4714 59.3217 51.1718C60.8544 54.8723 63.1011 58.2346 65.9332 61.0668C68.7654 63.8989 72.1277 66.1456 75.8282 67.6783C79.5286 69.2111 83.4947 70 87.5 70L87.5 39.5V9Z"/>
</mask>
<path d="M87.5 9C83.4947 9 79.5286 9.78891 75.8282 11.3217C72.1277 12.8544 68.7654 15.1011 65.9332 17.9332C63.1011 20.7654 60.8544 24.1277 59.3217 27.8282C57.7889 31.5286 57 35.4947 57 39.5C57 43.5053 57.7889 47.4714 59.3217 51.1718C60.8544 54.8723 63.1011 58.2346 65.9332 61.0668C68.7654 63.8989 72.1277 66.1456 75.8282 67.6783C79.5286 69.2111 83.4947 70 87.5 70L87.5 39.5V9Z" fill="black" fill-opacity="0.8"/>
<path d="M87.5 9C83.4947 9 79.5286 9.78891 75.8282 11.3217C72.1277 12.8544 68.7654 15.1011 65.9332 17.9332C63.1011 20.7654 60.8544 24.1277 59.3217 27.8282C57.7889 31.5286 57 35.4947 57 39.5C57 43.5053 57.7889 47.4714 59.3217 51.1718C60.8544 54.8723 63.1011 58.2346 65.9332 61.0668C68.7654 63.8989 72.1277 66.1456 75.8282 67.6783C79.5286 69.2111 83.4947 70 87.5 70L87.5 39.5V9Z" stroke="white" stroke-width="14" mask="url(#path-3-inside-3_401_652)"/>
<path d="M87.5 9C83.4947 9 79.5286 9.78891 75.8282 11.3217C72.1277 12.8544 68.7654 15.1011 65.9332 17.9332C63.1011 20.7654 60.8544 24.1277 59.3217 27.8282C57.7889 31.5286 57 35.4947 57 39.5C57 43.5053 57.7889 47.4714 59.3217 51.1718C60.8544 54.8723 63.1011 58.2346 65.9332 61.0668C68.7654 63.8989 72.1277 66.1456 75.8282 67.6783C79.5286 69.2111 83.4947 70 87.5 70L87.5 39.5V9Z" stroke="black" stroke-opacity="0.8" stroke-width="14" mask="url(#path-3-inside-3_401_652)"/>
<mask id="path-4-inside-4_401_652" fill="white">
<path d="M101.5 9C105.505 9 109.471 9.78891 113.172 11.3217C116.872 12.8544 120.235 15.1011 123.067 17.9332C125.899 20.7654 128.146 24.1277 129.678 27.8282C131.211 31.5286 132 35.4947 132 39.5C132 43.5053 131.211 47.4714 129.678 51.1718C128.146 54.8723 125.899 58.2346 123.067 61.0668C120.235 63.8989 116.872 66.1456 113.172 67.6783C109.471 69.2111 105.505 70 101.5 70L101.5 39.5V9Z"/>
</mask>
<path d="M101.5 9C105.505 9 109.471 9.78891 113.172 11.3217C116.872 12.8544 120.235 15.1011 123.067 17.9332C125.899 20.7654 128.146 24.1277 129.678 27.8282C131.211 31.5286 132 35.4947 132 39.5C132 43.5053 131.211 47.4714 129.678 51.1718C128.146 54.8723 125.899 58.2346 123.067 61.0668C120.235 63.8989 116.872 66.1456 113.172 67.6783C109.471 69.2111 105.505 70 101.5 70L101.5 39.5V9Z" fill="black" fill-opacity="0.8"/>
<path d="M101.5 9C105.505 9 109.471 9.78891 113.172 11.3217C116.872 12.8544 120.235 15.1011 123.067 17.9332C125.899 20.7654 128.146 24.1277 129.678 27.8282C131.211 31.5286 132 35.4947 132 39.5C132 43.5053 131.211 47.4714 129.678 51.1718C128.146 54.8723 125.899 58.2346 123.067 61.0668C120.235 63.8989 116.872 66.1456 113.172 67.6783C109.471 69.2111 105.505 70 101.5 70L101.5 39.5V9Z" stroke="white" stroke-width="14" mask="url(#path-4-inside-4_401_652)"/>
<path d="M101.5 9C105.505 9 109.471 9.78891 113.172 11.3217C116.872 12.8544 120.235 15.1011 123.067 17.9332C125.899 20.7654 128.146 24.1277 129.678 27.8282C131.211 31.5286 132 35.4947 132 39.5C132 43.5053 131.211 47.4714 129.678 51.1718C128.146 54.8723 125.899 58.2346 123.067 61.0668C120.235 63.8989 116.872 66.1456 113.172 67.6783C109.471 69.2111 105.505 70 101.5 70L101.5 39.5V9Z" stroke="black" stroke-opacity="0.8" stroke-width="14" mask="url(#path-4-inside-4_401_652)"/>
</svg>
