<?xml version="1.0" encoding="UTF-8" standalone="no"?>
<!-- Created with Inkscape (http://www.inkscape.org/) -->

<svg
   width="108.94374mm"
   height="97.891228mm"
   viewBox="0 0 108.94374 97.891224"
   version="1.1"
   id="svg5"
   inkscape:version="1.1.2 (1:1.1+202202050950+0a00cf5339)"
   sodipodi:docname="Tilt_Down.svg"
   xmlns:inkscape="http://www.inkscape.org/namespaces/inkscape"
   xmlns:sodipodi="http://sodipodi.sourceforge.net/DTD/sodipodi-0.dtd"
   xmlns="http://www.w3.org/2000/svg"
   xmlns:svg="http://www.w3.org/2000/svg">
  <sodipodi:namedview
     id="namedview7"
     pagecolor="#ffffff"
     bordercolor="#666666"
     borderopacity="1.0"
     inkscape:pageshadow="2"
     inkscape:pageopacity="0.0"
     inkscape:pagecheckerboard="0"
     inkscape:document-units="mm"
     showgrid="false"
     fit-margin-top="0"
     fit-margin-left="0"
     fit-margin-right="0"
     fit-margin-bottom="0"
     inkscape:zoom="0.75187991"
     inkscape:cx="216.12494"
     inkscape:cy="174.89495"
     inkscape:window-width="1848"
     inkscape:window-height="1016"
     inkscape:window-x="72"
     inkscape:window-y="27"
     inkscape:window-maximized="1"
     inkscape:current-layer="layer1" />
  <defs
     id="defs2">
    <marker
       style="overflow:visible"
       id="Arrow2Mend"
       refX="0"
       refY="0"
       orient="auto"
       inkscape:stockid="Arrow2Mend"
       inkscape:isstock="true">
      <path
         transform="scale(-0.6)"
         d="M 8.7185878,4.0337352 -2.2072895,0.01601326 8.7185884,-4.0017078 c -1.7454984,2.3720609 -1.7354408,5.6174519 -6e-7,8.035443 z"
         style="fill:context-stroke;fill-rule:evenodd;stroke:context-stroke;stroke-width:0.625;stroke-linejoin:round"
         id="path24343" />
    </marker>
    <marker
       style="overflow:visible"
       id="Arrow2Lend"
       refX="0"
       refY="0"
       orient="auto"
       inkscape:stockid="Arrow2Lend"
       inkscape:isstock="true">
      <path
         transform="matrix(-1.1,0,0,-1.1,-1.1,0)"
         d="M 8.7185878,4.0337352 -2.2072895,0.01601326 8.7185884,-4.0017078 c -1.7454984,2.3720609 -1.7354408,5.6174519 -6e-7,8.035443 z"
         style="fill:context-stroke;fill-rule:evenodd;stroke:context-stroke;stroke-width:0.625;stroke-linejoin:round"
         id="path24337" />
    </marker>
    <inkscape:path-effect
       effect="bspline"
       id="path-effect1362"
       is_visible="true"
       lpeversion="1"
       weight="33.333333"
       steps="2"
       helper_size="0"
       apply_no_weight="true"
       apply_with_weight="true"
       only_selected="false" />
    <inkscape:path-effect
       effect="bspline"
       id="path-effect1165"
       is_visible="true"
       lpeversion="1"
       weight="33.333333"
       steps="2"
       helper_size="0"
       apply_no_weight="true"
       apply_with_weight="true"
       only_selected="false" />
    <inkscape:path-effect
       effect="bspline"
       id="path-effect1362-3"
       is_visible="true"
       lpeversion="1"
       weight="33.333333"
       steps="2"
       helper_size="0"
       apply_no_weight="true"
       apply_with_weight="true"
       only_selected="false" />
  </defs>
  <g
     inkscape:label="Layer 1"
     inkscape:groupmode="layer"
     id="layer1"
     transform="translate(-42.553498,-102.43186)">
    <g
       id="camera"
       transform="matrix(2.8974677,0,0,2.8974677,58.778275,98.644317)"
       style="stroke:#cccccc;stroke-opacity:1;fill:#cccccc;fill-opacity:1">
      <path
         clip-rule="evenodd"
         d="m 16,10.001 c -4.419,0 -8,3.581 -8,8 0,4.418 3.581,8 8,8 4.418,0 8,-3.582 8,-8 0,-4.418 -3.582,-8 -8,-8 z m 4.555,11.905 c -2.156,2.516 -5.943,2.807 -8.459,0.65 -2.517,-2.156 -2.807,-5.944 -0.65,-8.459 2.155,-2.517 5.943,-2.807 8.459,-0.65 2.515,2.155 2.806,5.944 0.65,8.459 z"
         fill="#333333"
         fill-rule="evenodd"
         id="path916"
         style="stroke:#cccccc;stroke-opacity:1;fill:#cccccc;fill-opacity:1" />
      <path
         clip-rule="evenodd"
         d="m 16,14.001 c -2.209,0 -3.999,1.791 -4,3.999 v 0.002 c 0,0.275 0.224,0.5 0.5,0.5 0.276,0 0.5,-0.225 0.5,-0.5 V 18 c 10e-4,-1.656 1.343,-2.999 3,-2.999 0.276,0 0.5,-0.224 0.5,-0.5 0,-0.276 -0.224,-0.5 -0.5,-0.5 z"
         fill="#333333"
         fill-rule="evenodd"
         id="path918"
         style="stroke:#cccccc;stroke-opacity:1;fill:#cccccc;fill-opacity:1" />
      <path
         clip-rule="evenodd"
         d="M 29.492,9.042 25.158,8.319 23.785,4.885 C 23.326,3.74 22.232,3 21,3 H 11 C 9.768,3 8.674,3.74 8.214,4.886 L 6.842,8.319 2.509,9.042 C 1.055,9.283 0,10.527 0,12 v 15 c 0,1.654 1.346,3 3,3 h 26 c 1.654,0 3,-1.346 3,-3 V 12 C 32,10.527 30.945,9.283 29.492,9.042 Z M 30,27 c 0,0.553 -0.447,1 -1,1 H 3 C 2.447,28 2,27.553 2,27 V 12 C 2,11.511 2.354,11.094 2.836,11.014 L 8.28,10.107 10.071,5.629 C 10.224,5.25 10.591,5 11,5 h 10 c 0.408,0 0.775,0.249 0.928,0.629 l 1.791,4.478 5.445,0.907 C 29.646,11.094 30,11.511 30,12 Z"
         fill="#333333"
         fill-rule="evenodd"
         id="path920"
         style="stroke:#cccccc;stroke-opacity:1;fill:#cccccc;fill-opacity:1" />
    </g>
    <path
       style="fill:none;stroke:#cccccc;stroke-width:4;stroke-linecap:butt;stroke-linejoin:miter;stroke-miterlimit:4;stroke-dasharray:none;stroke-opacity:1;marker-end:url(#Arrow2Mend)"
       d="m 77.970469,114.46641 c -1.379048,-3.18327 -2.758081,-6.36649 -5.252785,-8.4768 -2.494704,-2.1103 -6.104593,-3.14738 -9.424946,-2.61415 -3.320353,0.53322 -6.350933,2.63642 -8.590296,5.10532 -2.239363,2.46891 -3.687503,5.30326 -4.879002,9.9667 -1.1915,4.66343 -2.126392,11.15578 -2.609909,16.15804 -0.483518,5.00226 -0.51565,8.51407 -0.547782,12.02578"
       id="path1360"
       inkscape:path-effect="#path-effect1362"
       inkscape:original-d="m 77.970469,114.46641 c -1.37936,-3.18313 -2.75839,-6.36636 -4.13719,-9.5499 -3.61037,-1.03695 -7.22026,-2.07403 -10.8299,-3.11131 -3.03101,2.10346 -6.06158,4.20667 -9.09196,6.30974 -1.44849,2.83467 -2.8966,5.66904 -4.34454,8.5033 -0.93511,6.49265 -1.87007,12.98499 -2.80473,19.47742 -0.0324,3.51212 -0.0645,7.02393 -0.0964,10.53564"
       sodipodi:nodetypes="ccccccc" />
    <path
       style="fill:none;stroke:#cccccc;stroke-width:4;stroke-linecap:butt;stroke-linejoin:miter;stroke-miterlimit:4;stroke-dasharray:none;stroke-opacity:1"
       d="m 77.993925,187.84913 c -1.379245,3.29962 -2.758484,6.59923 -5.25353,8.78669 -2.495046,2.18746 -6.10547,3.26246 -9.426329,2.70975 -3.32086,-0.5527 -6.35189,-2.7328 -8.591559,-5.29196 -2.239669,-2.55917 -3.688003,-5.49717 -4.879669,-10.3311 -1.191666,-4.83393 -2.126711,-11.56364 -2.610305,-16.74879 -0.483594,-5.18514 -0.515726,-8.82534 -0.547858,-12.46543"
       id="path1360-6"
       inkscape:path-effect="#path-effect1362-3"
       inkscape:original-d="m 77.993925,187.84913 c -1.37954,3.2995 -2.75878,6.59911 -4.13781,9.89905 -3.61084,1.07485 -7.22126,2.14986 -10.8315,3.22506 -3.03141,-2.18037 -6.06244,-4.36047 -9.09326,-6.54042 -1.44865,-2.93831 -2.89699,-5.87631 -4.34509,-8.81419 -0.93533,-6.73002 -1.87037,-13.45973 -2.80519,-20.18952 -0.0324,-3.64053 -0.0645,-7.28073 -0.0964,-10.92082"
       sodipodi:nodetypes="ccccccc" />
  </g>
</svg>
